<?xml version="1.0" standalone="no"?>
<!DOCTYPE svg PUBLIC "-//W3C//DTD SVG 20010904//EN"
 "http://www.w3.org/TR/2001/REC-SVG-20010904/DTD/svg10.dtd">
<svg version="1.0" xmlns="http://www.w3.org/2000/svg"
 width="96.000000pt" height="96.000000pt" viewBox="0 0 96.000000 96.000000"
 preserveAspectRatio="xMidYMid meet">

<g transform="translate(0.000000,96.000000) scale(0.100000,-0.100000)"
fill="#FFFFFFFF" stroke="none">
<path d="M413 890 c-125 -25 -174 -102 -157 -247 10 -84 34 -116 34 -45 0 50
46 126 69 116 32 -14 133 -16 174 -4 40 11 46 10 79 -12 26 -17 38 -33 44 -62
15 -66 34 -57 34 16 0 138 -49 215 -150 237 -57 12 -67 12 -127 1z"/>
<path d="M550 660 c-17 -11 -18 -11 37 -13 44 -2 46 6 3 16 -14 4 -32 2 -40
-3z"/>
<path d="M354 640 c-12 -5 -25 -14 -29 -20 -6 -9 -2 -9 13 -1 11 6 30 11 41
11 11 0 23 5 26 10 7 12 -22 12 -51 0z"/>
<path d="M378 603 c7 -3 16 -2 19 1 4 3 -2 6 -13 5 -11 0 -14 -3 -6 -6z"/>
<path d="M580 595 c0 -8 -4 -15 -10 -15 -5 0 -7 -7 -4 -15 8 -19 40 -19 48 0
3 8 -2 21 -10 30 -19 19 -24 19 -24 0z"/>
<path d="M371 572 c-7 -13 -6 -23 1 -30 27 -27 54 -3 36 31 -11 22 -25 22 -37
-1z"/>
<path d="M80 495 c0 0 -6 -61 -14 -136 -27 -254 2 -309 122 -229 31 21 60 36
64 34 5 -3 8 -32 8 -65 l0 -59 75 0 c70 0 75 1 75 21 0 31 22 99 32 99 4 0 8
6 8 14 0 7 6 19 14 25 11 10 19 7 35 -10 29 -31 51 -82 51 -118 l0 -31 74 0
74 0 7 66 c7 65 7 65 28 50 68 -49 108 -68 133 -62 45 12 49 39 30 223 -10 93
-19 170 -21 172 -2 1 -26 4 -54 5 l-50 1 -3 -83 -3 -84 -36 35 c-59 58 -72 61
-105 26 -38 -40 -95 -69 -136 -69 -45 1 -114 33 -148 71 -26 27 -32 29 -51 18
-13 -6 -39 -27 -58 -46 l-36 -35 -3 84 -3 83 -54 0 c-30 0 -55 0 -55 0z m410
-235 c0 -5 -4 -10 -10 -10 -5 0 -10 5 -10 10 0 6 5 10 10 10 6 0 10 -4 10 -10z"/>
<path d="M473 428 c-13 -6 -23 -15 -23 -20 0 -5 10 -6 23 -2 12 5 38 7 57 6
22 -2 31 1 25 7 -17 16 -59 21 -82 9z"/>
</g>
</svg>
